<svg xmlns="http://www.w3.org/2000/svg" version="1.1" xmlns:xlink="http://www.w3.org/1999/xlink" xmlns:svgjs="http://svgjs.dev/svgjs" viewBox="0 0 800 800"><defs><linearGradient x1="50%" y1="0%" x2="50%" y2="100%" id="ffflurry-grad" gradientTransform="rotate(270)"><stop stop-color="rgba(0,0,0,0)" stop-opacity="1" offset="0%"></stop><stop stop-color="hsl(205, 69%, 60%)" stop-opacity="1" offset="45%"></stop><stop stop-color="hsl(205, 69%, 80%)" stop-opacity="1" offset="100%"></stop></linearGradient></defs><rect width="100%" height="100%" fill="rgba(0,0,0,0)"></rect><g fill="url(#ffflurry-grad)"><rect width="152" height="1" x="-17" y="98.5" rx="0.5" transform="rotate(45, 59, 99)" opacity="0.20"></rect><rect width="303" height="1" x="414.5" y="743.5" rx="0.5" transform="rotate(45, 566, 744)" opacity="0.85"></rect><rect width="136" height="1" x="673" y="549.5" rx="0.5" transform="rotate(45, 741, 550)" opacity="0.30"></rect><rect width="279" height="1" x="84.5" y="629.5" rx="0.5" transform="rotate(45, 224, 630)" opacity="0.09"></rect><rect width="390" height="1" x="-112" y="262.5" rx="0.5" transform="rotate(45, 83, 263)" opacity="0.91"></rect><rect width="85" height="1" x="292.5" y="676.5" rx="0.5" transform="rotate(45, 335, 677)" opacity="0.55"></rect><rect width="157" height="1" x="115.5" y="82.5" rx="0.5" transform="rotate(45, 194, 83)" opacity="0.86"></rect><rect width="254" height="1" x="502" y="214.5" rx="0.5" transform="rotate(45, 629, 215)" opacity="0.53"></rect><rect width="114" height="1" x="417" y="242.5" rx="0.5" transform="rotate(45, 474, 243)" opacity="0.18"></rect><rect width="260" height="1" x="250" y="122.5" rx="0.5" transform="rotate(45, 380, 123)" opacity="0.49"></rect><rect width="120" height="1" x="438" y="46.5" rx="0.5" transform="rotate(45, 498, 47)" opacity="0.77"></rect><rect width="281" height="1" x="605.5" y="340.5" rx="0.5" transform="rotate(45, 746, 341)" opacity="0.27"></rect><rect width="194" height="1" x="506" y="93.5" rx="0.5" transform="rotate(45, 603, 94)" opacity="0.33"></rect><rect width="105" height="1" x="564.5" y="327.5" rx="0.5" transform="rotate(45, 617, 328)" opacity="0.37"></rect><rect width="108" height="1" x="683" y="178.5" rx="0.5" transform="rotate(45, 737, 179)" opacity="0.66"></rect><rect width="235" height="1" x="406.5" y="159.5" rx="0.5" transform="rotate(45, 524, 160)" opacity="0.67"></rect><rect width="102" height="1" x="142" y="384.5" rx="0.5" transform="rotate(45, 193, 385)" opacity="0.75"></rect><rect width="163" height="1" x="663.5" y="64.5" rx="0.5" transform="rotate(45, 745, 65)" opacity="0.49"></rect><rect width="231" height="1" x="319.5" y="727.5" rx="0.5" transform="rotate(45, 435, 728)" opacity="0.35"></rect><rect width="277" height="1" x="187.5" y="406.5" rx="0.5" transform="rotate(45, 326, 407)" opacity="0.74"></rect><rect width="261" height="1" x="411.5" y="567.5" rx="0.5" transform="rotate(45, 542, 568)" opacity="0.73"></rect><rect width="189" height="1" x="339.5" y="351.5" rx="0.5" transform="rotate(45, 434, 352)" opacity="0.81"></rect><rect width="190" height="1" x="559" y="32.5" rx="0.5" transform="rotate(45, 654, 33)" opacity="0.51"></rect><rect width="104" height="1" x="286" y="38.5" rx="0.5" transform="rotate(45, 338, 39)" opacity="0.98"></rect><rect width="336" height="1" x="-106" y="417.5" rx="0.5" transform="rotate(45, 62, 418)" opacity="0.75"></rect><rect width="193" height="1" x="-31.5" y="596.5" rx="0.5" transform="rotate(45, 65, 597)" opacity="0.78"></rect><rect width="316" height="1" x="565" y="727.5" rx="0.5" transform="rotate(45, 723, 728)" opacity="0.82"></rect><rect width="231" height="1" x="501.5" y="639.5" rx="0.5" transform="rotate(45, 617, 640)" opacity="0.13"></rect><rect width="197" height="1" x="120.5" y="511.5" rx="0.5" transform="rotate(45, 219, 512)" opacity="0.27"></rect><rect width="118" height="1" x="581" y="465.5" rx="0.5" transform="rotate(45, 640, 466)" opacity="0.43"></rect><rect width="260" height="1" x="214" y="240.5" rx="0.5" transform="rotate(45, 344, 241)" opacity="0.15"></rect><rect width="312" height="1" x="361" y="423.5" rx="0.5" transform="rotate(45, 517, 424)" opacity="0.97"></rect><rect width="212" height="1" x="123" y="237.5" rx="0.5" transform="rotate(45, 229, 238)" opacity="0.58"></rect><rect width="250" height="1" x="12" y="742.5" rx="0.5" transform="rotate(45, 137, 743)" opacity="0.47"></rect><rect width="75" height="1" x="371.5" y="537.5" rx="0.5" transform="rotate(45, 409, 538)" opacity="0.57"></rect></g></svg>