<svg xmlns="http://www.w3.org/2000/svg" version="1.1" xmlns:xlink="http://www.w3.org/1999/xlink" xmlns:svgjs="http://svgjs.dev/svgjs" viewBox="0 0 800 800" width="800" height="800"><g stroke-width="0.5" stroke="hsl(261, 60%, 38%)" fill="none"><circle r="2.5" cx="0" cy="0" fill="hsl(261, 60%, 38%)" stroke="none"></circle><circle r="2.5" cx="61.53846153846154" cy="0" fill="hsl(316, 73%, 52%)" stroke="none"></circle><circle r="2.5" cx="123.07692307692308" cy="0" fill="hsl(261, 60%, 38%)" stroke="none"></circle><circle r="2.5" cx="184.6153846153846" cy="0" fill="hsl(316, 73%, 52%)" stroke="none"></circle><circle r="2.5" cx="246.15384615384616" cy="0" fill="hsl(261, 60%, 38%)" stroke="none"></circle><circle r="2.5" cx="307.6923076923077" cy="0" fill="hsl(316, 73%, 52%)" stroke="none"></circle><circle r="2.5" cx="369.2307692307692" cy="0" fill="hsl(261, 60%, 38%)" stroke="none"></circle><circle r="2.5" cx="430.7692307692308" cy="0" fill="hsl(316, 73%, 52%)" stroke="none"></circle><circle r="2.5" cx="492.3076923076923" cy="0" fill="hsl(261, 60%, 38%)" stroke="none"></circle><circle r="2.5" cx="553.8461538461538" cy="0" fill="hsl(316, 73%, 52%)" stroke="none"></circle><circle r="2.5" cx="615.3846153846154" cy="0" fill="hsl(261, 60%, 38%)" stroke="none"></circle><circle r="2.5" cx="676.9230769230769" cy="0" fill="hsl(316, 73%, 52%)" stroke="none"></circle><circle r="2.5" cx="738.4615384615385" cy="0" fill="hsl(261, 60%, 38%)" stroke="none"></circle><circle r="2.5" cx="800" cy="0" fill="hsl(316, 73%, 52%)" stroke="none"></circle><circle r="2.5" cx="0" cy="80" fill="hsl(261, 60%, 38%)" stroke="none"></circle><circle r="2.5" cx="61.53846153846154" cy="80" fill="hsl(316, 73%, 52%)" stroke="none"></circle><circle r="2.5" cx="123.07692307692308" cy="80" fill="hsl(261, 60%, 38%)" stroke="none"></circle><circle r="2.5" cx="184.6153846153846" cy="80" fill="hsl(316, 73%, 52%)" stroke="none"></circle><circle r="2.5" cx="246.15384615384616" cy="80" fill="hsl(261, 60%, 38%)" stroke="none"></circle><circle r="2.5" cx="307.6923076923077" cy="80" fill="hsl(316, 73%, 52%)" stroke="none"></circle><circle r="2.5" cx="369.2307692307692" cy="80" fill="hsl(261, 60%, 38%)" stroke="none"></circle><circle r="2.5" cx="430.7692307692308" cy="80" fill="hsl(316, 73%, 52%)" stroke="none"></circle><circle r="2.5" cx="492.3076923076923" cy="80" fill="hsl(261, 60%, 38%)" stroke="none"></circle><circle r="2.5" cx="553.8461538461538" cy="80" fill="hsl(316, 73%, 52%)" stroke="none"></circle><circle r="2.5" cx="615.3846153846154" cy="80" fill="hsl(261, 60%, 38%)" stroke="none"></circle><circle r="2.5" cx="676.9230769230769" cy="80" fill="hsl(316, 73%, 52%)" stroke="none"></circle><circle r="2.5" cx="738.4615384615385" cy="80" fill="hsl(261, 60%, 38%)" stroke="none"></circle><circle r="2.5" cx="800" cy="80" fill="hsl(316, 73%, 52%)" stroke="none"></circle><circle r="2.5" cx="0" cy="160" fill="hsl(261, 60%, 38%)" stroke="none"></circle><circle r="2.5" cx="61.53846153846154" cy="160" fill="hsl(316, 73%, 52%)" stroke="none"></circle><circle r="2.5" cx="123.07692307692308" cy="160" fill="hsl(261, 60%, 38%)" stroke="none"></circle><circle r="2.5" cx="184.6153846153846" cy="160" fill="hsl(316, 73%, 52%)" stroke="none"></circle><circle r="2.5" cx="246.15384615384616" cy="160" fill="hsl(261, 60%, 38%)" stroke="none"></circle><circle r="2.5" cx="307.6923076923077" cy="160" fill="hsl(316, 73%, 52%)" stroke="none"></circle><circle r="2.5" cx="369.2307692307692" cy="160" fill="hsl(261, 60%, 38%)" stroke="none"></circle><circle r="2.5" cx="430.7692307692308" cy="160" fill="hsl(316, 73%, 52%)" stroke="none"></circle><circle r="2.5" cx="492.3076923076923" cy="160" fill="hsl(261, 60%, 38%)" stroke="none"></circle><circle r="2.5" cx="553.8461538461538" cy="160" fill="hsl(316, 73%, 52%)" stroke="none"></circle><circle r="2.5" cx="615.3846153846154" cy="160" fill="hsl(261, 60%, 38%)" stroke="none"></circle><circle r="2.5" cx="676.9230769230769" cy="160" fill="hsl(316, 73%, 52%)" stroke="none"></circle><circle r="2.5" cx="738.4615384615385" cy="160" fill="hsl(261, 60%, 38%)" stroke="none"></circle><circle r="2.5" cx="800" cy="160" fill="hsl(316, 73%, 52%)" stroke="none"></circle><circle r="2.5" cx="0" cy="240" fill="hsl(261, 60%, 38%)" stroke="none"></circle><circle r="2.5" cx="61.53846153846154" cy="240" fill="hsl(316, 73%, 52%)" stroke="none"></circle><circle r="2.5" cx="123.07692307692308" cy="240" fill="hsl(261, 60%, 38%)" stroke="none"></circle><circle r="2.5" cx="184.6153846153846" cy="240" fill="hsl(316, 73%, 52%)" stroke="none"></circle><circle r="2.5" cx="246.15384615384616" cy="240" fill="hsl(261, 60%, 38%)" stroke="none"></circle><circle r="2.5" cx="307.6923076923077" cy="240" fill="hsl(316, 73%, 52%)" stroke="none"></circle><circle r="2.5" cx="369.2307692307692" cy="240" fill="hsl(261, 60%, 38%)" stroke="none"></circle><circle r="2.5" cx="430.7692307692308" cy="240" fill="hsl(316, 73%, 52%)" stroke="none"></circle><circle r="2.5" cx="492.3076923076923" cy="240" fill="hsl(261, 60%, 38%)" stroke="none"></circle><circle r="2.5" cx="553.8461538461538" cy="240" fill="hsl(316, 73%, 52%)" stroke="none"></circle><circle r="2.5" cx="615.3846153846154" cy="240" fill="hsl(261, 60%, 38%)" stroke="none"></circle><circle r="2.5" cx="676.9230769230769" cy="240" fill="hsl(316, 73%, 52%)" stroke="none"></circle><circle r="2.5" cx="738.4615384615385" cy="240" fill="hsl(261, 60%, 38%)" stroke="none"></circle><circle r="2.5" cx="800" cy="240" fill="hsl(316, 73%, 52%)" stroke="none"></circle><circle r="2.5" cx="0" cy="320" fill="hsl(261, 60%, 38%)" stroke="none"></circle><circle r="2.5" cx="61.53846153846154" cy="320" fill="hsl(316, 73%, 52%)" stroke="none"></circle><circle r="2.5" cx="123.07692307692308" cy="320" fill="hsl(261, 60%, 38%)" stroke="none"></circle><circle r="2.5" cx="184.6153846153846" cy="320" fill="hsl(316, 73%, 52%)" stroke="none"></circle><circle r="2.5" cx="246.15384615384616" cy="320" fill="hsl(261, 60%, 38%)" stroke="none"></circle><circle r="2.5" cx="307.6923076923077" cy="320" fill="hsl(316, 73%, 52%)" stroke="none"></circle><circle r="2.5" cx="369.2307692307692" cy="320" fill="hsl(261, 60%, 38%)" stroke="none"></circle><circle r="2.5" cx="430.7692307692308" cy="320" fill="hsl(316, 73%, 52%)" stroke="none"></circle><circle r="2.5" cx="492.3076923076923" cy="320" fill="hsl(261, 60%, 38%)" stroke="none"></circle><circle r="2.5" cx="553.8461538461538" cy="320" fill="hsl(316, 73%, 52%)" stroke="none"></circle><circle r="2.5" cx="615.3846153846154" cy="320" fill="hsl(261, 60%, 38%)" stroke="none"></circle><circle r="2.5" cx="676.9230769230769" cy="320" fill="hsl(316, 73%, 52%)" stroke="none"></circle><circle r="2.5" cx="738.4615384615385" cy="320" fill="hsl(261, 60%, 38%)" stroke="none"></circle><circle r="2.5" cx="800" cy="320" fill="hsl(316, 73%, 52%)" stroke="none"></circle><circle r="2.5" cx="0" cy="400" fill="hsl(261, 60%, 38%)" stroke="none"></circle><circle r="2.5" cx="61.53846153846154" cy="400" fill="hsl(316, 73%, 52%)" stroke="none"></circle><circle r="2.5" cx="123.07692307692308" cy="400" fill="hsl(261, 60%, 38%)" stroke="none"></circle><circle r="2.5" cx="184.6153846153846" cy="400" fill="hsl(316, 73%, 52%)" stroke="none"></circle><circle r="2.5" cx="246.15384615384616" cy="400" fill="hsl(261, 60%, 38%)" stroke="none"></circle><circle r="2.5" cx="307.6923076923077" cy="400" fill="hsl(316, 73%, 52%)" stroke="none"></circle><circle r="2.5" cx="369.2307692307692" cy="400" fill="hsl(261, 60%, 38%)" stroke="none"></circle><circle r="2.5" cx="430.7692307692308" cy="400" fill="hsl(316, 73%, 52%)" stroke="none"></circle><circle r="2.5" cx="492.3076923076923" cy="400" fill="hsl(261, 60%, 38%)" stroke="none"></circle><circle r="2.5" cx="553.8461538461538" cy="400" fill="hsl(316, 73%, 52%)" stroke="none"></circle><circle r="2.5" cx="615.3846153846154" cy="400" fill="hsl(261, 60%, 38%)" stroke="none"></circle><circle r="2.5" cx="676.9230769230769" cy="400" fill="hsl(316, 73%, 52%)" stroke="none"></circle><circle r="2.5" cx="738.4615384615385" cy="400" fill="hsl(261, 60%, 38%)" stroke="none"></circle><circle r="2.5" cx="800" cy="400" fill="hsl(316, 73%, 52%)" stroke="none"></circle><circle r="2.5" cx="0" cy="480" fill="hsl(261, 60%, 38%)" stroke="none"></circle><circle r="2.5" cx="61.53846153846154" cy="480" fill="hsl(316, 73%, 52%)" stroke="none"></circle><circle r="2.5" cx="123.07692307692308" cy="480" fill="hsl(261, 60%, 38%)" stroke="none"></circle><circle r="2.5" cx="184.6153846153846" cy="480" fill="hsl(316, 73%, 52%)" stroke="none"></circle><circle r="2.5" cx="246.15384615384616" cy="480" fill="hsl(261, 60%, 38%)" stroke="none"></circle><circle r="2.5" cx="307.6923076923077" cy="480" fill="hsl(316, 73%, 52%)" stroke="none"></circle><circle r="2.5" cx="369.2307692307692" cy="480" fill="hsl(261, 60%, 38%)" stroke="none"></circle><circle r="2.5" cx="430.7692307692308" cy="480" fill="hsl(316, 73%, 52%)" stroke="none"></circle><circle r="2.5" cx="492.3076923076923" cy="480" fill="hsl(261, 60%, 38%)" stroke="none"></circle><circle r="2.5" cx="553.8461538461538" cy="480" fill="hsl(316, 73%, 52%)" stroke="none"></circle><circle r="2.5" cx="615.3846153846154" cy="480" fill="hsl(261, 60%, 38%)" stroke="none"></circle><circle r="2.5" cx="676.9230769230769" cy="480" fill="hsl(316, 73%, 52%)" stroke="none"></circle><circle r="2.5" cx="738.4615384615385" cy="480" fill="hsl(261, 60%, 38%)" stroke="none"></circle><circle r="2.5" cx="800" cy="480" fill="hsl(316, 73%, 52%)" stroke="none"></circle><circle r="2.5" cx="0" cy="560" fill="hsl(261, 60%, 38%)" stroke="none"></circle><circle r="2.5" cx="61.53846153846154" cy="560" fill="hsl(316, 73%, 52%)" stroke="none"></circle><circle r="2.5" cx="123.07692307692308" cy="560" fill="hsl(261, 60%, 38%)" stroke="none"></circle><circle r="2.5" cx="184.6153846153846" cy="560" fill="hsl(316, 73%, 52%)" stroke="none"></circle><circle r="2.5" cx="246.15384615384616" cy="560" fill="hsl(261, 60%, 38%)" stroke="none"></circle><circle r="2.5" cx="307.6923076923077" cy="560" fill="hsl(316, 73%, 52%)" stroke="none"></circle><circle r="2.5" cx="369.2307692307692" cy="560" fill="hsl(261, 60%, 38%)" stroke="none"></circle><circle r="2.5" cx="430.7692307692308" cy="560" fill="hsl(316, 73%, 52%)" stroke="none"></circle><circle r="2.5" cx="492.3076923076923" cy="560" fill="hsl(261, 60%, 38%)" stroke="none"></circle><circle r="2.5" cx="553.8461538461538" cy="560" fill="hsl(316, 73%, 52%)" stroke="none"></circle><circle r="2.5" cx="615.3846153846154" cy="560" fill="hsl(261, 60%, 38%)" stroke="none"></circle><circle r="2.5" cx="676.9230769230769" cy="560" fill="hsl(316, 73%, 52%)" stroke="none"></circle><circle r="2.5" cx="738.4615384615385" cy="560" fill="hsl(261, 60%, 38%)" stroke="none"></circle><circle r="2.5" cx="800" cy="560" fill="hsl(316, 73%, 52%)" stroke="none"></circle><circle r="2.5" cx="0" cy="640" fill="hsl(261, 60%, 38%)" stroke="none"></circle><circle r="2.5" cx="61.53846153846154" cy="640" fill="hsl(316, 73%, 52%)" stroke="none"></circle><circle r="2.5" cx="123.07692307692308" cy="640" fill="hsl(261, 60%, 38%)" stroke="none"></circle><circle r="2.5" cx="184.6153846153846" cy="640" fill="hsl(316, 73%, 52%)" stroke="none"></circle><circle r="2.5" cx="246.15384615384616" cy="640" fill="hsl(261, 60%, 38%)" stroke="none"></circle><circle r="2.5" cx="307.6923076923077" cy="640" fill="hsl(316, 73%, 52%)" stroke="none"></circle><circle r="2.5" cx="369.2307692307692" cy="640" fill="hsl(261, 60%, 38%)" stroke="none"></circle><circle r="2.5" cx="430.7692307692308" cy="640" fill="hsl(316, 73%, 52%)" stroke="none"></circle><circle r="2.5" cx="492.3076923076923" cy="640" fill="hsl(261, 60%, 38%)" stroke="none"></circle><circle r="2.5" cx="553.8461538461538" cy="640" fill="hsl(316, 73%, 52%)" stroke="none"></circle><circle r="2.5" cx="615.3846153846154" cy="640" fill="hsl(261, 60%, 38%)" stroke="none"></circle><circle r="2.5" cx="676.9230769230769" cy="640" fill="hsl(316, 73%, 52%)" stroke="none"></circle><circle r="2.5" cx="738.4615384615385" cy="640" fill="hsl(261, 60%, 38%)" stroke="none"></circle><circle r="2.5" cx="800" cy="640" fill="hsl(316, 73%, 52%)" stroke="none"></circle><circle r="2.5" cx="0" cy="720" fill="hsl(261, 60%, 38%)" stroke="none"></circle><circle r="2.5" cx="61.53846153846154" cy="720" fill="hsl(316, 73%, 52%)" stroke="none"></circle><circle r="2.5" cx="123.07692307692308" cy="720" fill="hsl(261, 60%, 38%)" stroke="none"></circle><circle r="2.5" cx="184.6153846153846" cy="720" fill="hsl(316, 73%, 52%)" stroke="none"></circle><circle r="2.5" cx="246.15384615384616" cy="720" fill="hsl(261, 60%, 38%)" stroke="none"></circle><circle r="2.5" cx="307.6923076923077" cy="720" fill="hsl(316, 73%, 52%)" stroke="none"></circle><circle r="2.5" cx="369.2307692307692" cy="720" fill="hsl(261, 60%, 38%)" stroke="none"></circle><circle r="2.5" cx="430.7692307692308" cy="720" fill="hsl(316, 73%, 52%)" stroke="none"></circle><circle r="2.5" cx="492.3076923076923" cy="720" fill="hsl(261, 60%, 38%)" stroke="none"></circle><circle r="2.5" cx="553.8461538461538" cy="720" fill="hsl(316, 73%, 52%)" stroke="none"></circle><circle r="2.5" cx="615.3846153846154" cy="720" fill="hsl(261, 60%, 38%)" stroke="none"></circle><circle r="2.5" cx="676.9230769230769" cy="720" fill="hsl(316, 73%, 52%)" stroke="none"></circle><circle r="2.5" cx="738.4615384615385" cy="720" fill="hsl(261, 60%, 38%)" stroke="none"></circle><circle r="2.5" cx="800" cy="720" fill="hsl(316, 73%, 52%)" stroke="none"></circle><circle r="2.5" cx="0" cy="800" fill="hsl(261, 60%, 38%)" stroke="none"></circle><circle r="2.5" cx="61.53846153846154" cy="800" fill="hsl(316, 73%, 52%)" stroke="none"></circle><circle r="2.5" cx="123.07692307692308" cy="800" fill="hsl(261, 60%, 38%)" stroke="none"></circle><circle r="2.5" cx="184.6153846153846" cy="800" fill="hsl(316, 73%, 52%)" stroke="none"></circle><circle r="2.5" cx="246.15384615384616" cy="800" fill="hsl(261, 60%, 38%)" stroke="none"></circle><circle r="2.5" cx="307.6923076923077" cy="800" fill="hsl(316, 73%, 52%)" stroke="none"></circle><circle r="2.5" cx="369.2307692307692" cy="800" fill="hsl(261, 60%, 38%)" stroke="none"></circle><circle r="2.5" cx="430.7692307692308" cy="800" fill="hsl(316, 73%, 52%)" stroke="none"></circle><circle r="2.5" cx="492.3076923076923" cy="800" fill="hsl(261, 60%, 38%)" stroke="none"></circle><circle r="2.5" cx="553.8461538461538" cy="800" fill="hsl(316, 73%, 52%)" stroke="none"></circle><circle r="2.5" cx="615.3846153846154" cy="800" fill="hsl(261, 60%, 38%)" stroke="none"></circle><circle r="2.5" cx="676.9230769230769" cy="800" fill="hsl(316, 73%, 52%)" stroke="none"></circle><circle r="2.5" cx="738.4615384615385" cy="800" fill="hsl(261, 60%, 38%)" stroke="none"></circle><circle r="2.5" cx="800" cy="800" fill="hsl(316, 73%, 52%)" stroke="none"></circle></g></svg>