<svg xmlns="http://www.w3.org/2000/svg" version="1.1" xmlns:xlink="http://www.w3.org/1999/xlink" xmlns:svgjs="http://svgjs.dev/svgjs" viewBox="0 0 800 800" opacity="1"><defs><linearGradient x1="50%" y1="0%" x2="50%" y2="100%" id="ssscribble-grad"><stop stop-color="hsl(206, 75%, 49%)" stop-opacity="1" offset="0%"></stop><stop stop-color="hsl(331, 90%, 56%)" stop-opacity="1" offset="100%"></stop></linearGradient></defs><g fill="none" stroke-width="1" stroke="url(#ssscribble-grad)" stroke-linecap="round" stroke-dasharray="110"><path d="M835.86 399.85C816.7 426.88 787.69 451.09 757.31 472.45 734.15 493.86 720.65 512.57 717.15 528.79 723.82 545.6 733.37 560.79 740.7 575.16 745.04 591.7 740.48 609.13 726.79 628.41 706.37 651.48 679.02 677.24 647.58 705.21 613.7 735.29 579.08 764.88 545.37 791.26 511.96 813.46 480.09 827.75 450.01 831.96 420.27 828.35 391.8 815.25 364.77 794.79 337.75 773.74 313.44 753.53 292.21 737.19 262.67 726.56 222.52 733.04 209.8 737.82 199.58 738.69 188.14 733.87 173.13 723.18 151.39 708.85 123.91 689.14 91.42 665.42 55.96 639.38 22.17 610.98 -4.31 581.57 -20.62 551.43 -22.5 521.24 -9.77 491.8 10.17 462.28 33.7 433.75 52.86 406.72 58.32 379.69 51.53 355.45 36.21 334 15.45 312.47 -0.37 293.49 -5.84 276.79 -0.78 259.37 17.53 243.25 45.83 227.64 79.61 209.7 115.7 190.61 150.37 169.52 181.38 144.79 208.15 117.56 231.1 88.55 249.78 58.1 266.9 28.92 284.09 3.79 299.73 -16.48 317.41 -28.32 337.89 -29.89 358.17 -23.99 381.77 -9.25 408.79 11.79 435.82 32.24 465 50.82 495.69 64.86 526.18 71.08 557.67 72.18 588.86 69.79 618.51 63.22 645.91 57.87 668.88 55.94 693.61 59.25 702.77 101.58 695.12 137.38 694.95 164.67 700.87 193.98 715.62 224.01 740.9 254.63 772.11 285.08 803.3 314.65 829.05 344.26 841.32 372.81 835.86 399.84Q835.86 399.85 835.86 399.85" opacity="0.20"></path><path d="M792.36 368.04C775.85 392.06 750.67 414.06 722.86 434.07 699 454.27 681.32 472.9 671.28 490.28 670.39 508.55 674.29 526.49 679.63 544.67 686.29 564.82 688.6 586.22 685.03 609.16 677.3 634.39 663.01 660.96 643.49 687.92 620.66 714.94 594.73 739.87 567.45 760.59 539.08 776.99 510.79 786.26 483.56 787.14 456.2 782.11 430.23 769.62 406.21 751.29 382.19 732.49 361.24 713.82 343.29 697.62 317.51 683.62 275.37 679.8 254.35 682.62 236.84 684.74 216.64 683.49 192.88 678.21 164.97 670.94 134.17 659.2 102.5 643.59 72.14 626.05 46.7 605.53 29.98 583.05 22.4 559.63 26.41 535.15 41 510.44 59.54 485.5 79.85 460.76 96.36 436.74 101.98 412.71 98.07 390.54 86.84 370.17 69.53 349.58 53.94 330.35 44.46 312.13 41.44 292.98 48.97 273.94 66.03 254.45 89.76 233.03 119.02 210.29 150.66 186.07 182.65 159.86 213.44 132.63 241.98 105.49 268.04 78.85 291.96 54.92 314.36 35.79 335.09 21.37 355.72 14.37 376.99 15.76 397.81 22.69 420.14 36.48 444.16 55.29 468.19 73.62 492.77 90.97 517.25 105.28 541.3 113.67 564.37 118.08 585.28 119.29 626.9 112.14 642.27 132.1 643.17 155.53 651.12 174.37 665.14 196 685.77 219.36 712.85 243.61 742.12 268.69 768.69 293.79 789.2 319.09 797.98 344.01 792.36 368.03Q792.36 368.04 792.36 368.04" opacity="0.90"></path><path d="M748.86 350.87C734.89 371.89 713.57 392.13 689.01 411.56 666.02 431.2 646.24 450.43 631.49 469.45 623.73 489.2 620.73 509.35 620.81 530.09 624.46 552.05 627.37 574.94 627.81 598.54 627.23 622.93 622.29 647.34 613.04 670.72 601.58 692.91 586.38 712.19 568.48 727.06 549.29 738.08 528.54 743.09 507.2 741.43 485.53 735.54 463.9 723.95 442.88 707.79 421.86 691.27 402.43 674.4 384.46 658.89 366.16 647.25 348.67 638.32 331.42 632.05 312.9 629.82 293.47 628.91 272.54 628.29 249.39 629.27 224.15 628.66 197.18 625.74 169.19 622.32 141.36 615.76 115.82 606.12 85.92 588.61 73.6 540.09 92.38 511.32 108.83 491.53 125.89 470.94 139.86 449.92 145.45 428.9 143.94 408.44 136.54 388.58 123.28 368.51 109.73 348.66 99.07 328.85 91.3 308.34 90.72 287.3 97.63 265.62 110.16 242.87 129.01 219.25 152.23 195.11 178.11 170.48 205.6 146.17 233.17 123.3 260.55 102.03 286.91 84.08 311.86 70.91 336.03 61.77 359.13 58.73 381.31 62.26 403.17 69.66 424.64 82.26 445.66 98.79 466.69 114.94 486.27 130.79 504.04 144.8 546.81 162.14 579.85 164.48 582.87 167.9 587.2 171.86 593.27 179.14 602.63 189.59 617.61 201.24 637.04 215.71 660.21 232.39 686.28 249.8 711.8 268.81 733.17 288.81 748.68 309.03 754.45 329.84 748.86 350.86Q748.86 350.87 748.86 350.87" opacity="0.47"></path><path d="M705.36 356.2C693.82 374.22 676.29 392.53 655.47 410.98 634.68 429.56 614.89 448.52 597.75 467.81 585.09 487.46 576 507.69 569.95 528.32 567.76 549.34 566.73 570.68 565.62 591.83 565.65 612.73 563.82 632.7 559.54 650.84 550.89 674.03 518.91 697.43 497.02 694.89 481.57 688.68 464.69 678.23 446.68 664.29 428.66 650.08 410.35 635.23 391.82 620.92 373.05 609.13 353.63 598.93 333.46 590.5 312.63 585.12 290.65 580.98 267.68 577.52 244.19 575.95 220.16 573.91 196.51 570.82 142.34 555.94 125.47 512.02 144.08 490.19 157.95 474.96 171.82 458.25 183.36 440.23 188.72 422.21 189.11 403.75 185.09 384.99 176.02 366.13 165.7 346.78 156.18 327.03 147.02 306.98 141.94 286.34 141.76 265.36 145.05 244.12 153.64 222.72 166.68 201.71 182.66 181.19 201.69 161.87 222.51 144.68 244.53 129.37 267.1 117.35 289.37 109.52 311.81 104.74 333.54 104.69 354.13 109.53 374.69 116.88 394.13 128.08 412.15 142.29 430.17 156.23 445.91 170.32 459.33 183.49 491.66 206.23 524.74 219.3 535.8 222.72 546.37 225.18 559.14 229.71 574.61 236.46 593.55 243.6 614.79 253.05 637.16 264.62 659.88 276.56 680.45 290.38 696.48 305.77 707.45 321.3 710.73 338.17 705.36 356.19Q705.36 356.2 705.36 356.2" opacity="0.23"></path><path d="M661.86 381.6C639.95 411.63 604.92 444.81 569.26 479.39 542.54 514.13 523.9 549.93 510.95 583.42 505.1 614.05 496.51 637.82 481.76 649.76 467.16 653.4 444.72 643.32 414.69 620.79 384.65 597.53 349.88 573.36 312.44 552.53 275.15 539.76 236.87 529.4 203.36 519.11 176.95 512.18 163.73 500.68 168.45 483.33 182.09 466.02 204.95 442.14 226.86 412.11 231.96 382.08 225.42 348.74 213.7 314.01 197.94 279.32 192.65 243.95 200.47 211.52 215.87 182.45 241.92 160.95 272.81 151.71 305.92 150.53 339.28 162.53 369.31 185.79 399.34 208.31 423.21 230.56 442.14 248.93 463.29 259.01 484.11 267.09 508.07 275.83 539.6 281.69 576.74 292.76 614.52 310.06 648.25 327.52 666.96 351.56 661.86 381.59Q661.86 381.6 661.86 381.6" opacity="0.21"></path><path d="M618.36 415.42C601.85 439.44 574.82 465.96 544.62 493.03 517.32 519.61 493.26 545.59 473.27 568.09 458.59 587.79 444.52 601.27 428.77 605.77 414.33 605.36 395.45 595.62 371.43 577.29 347.41 558.49 320.51 537.74 293.32 518 267.44 502.85 244.01 488.88 227.2 475.51 215.7 465.08 214.27 452.58 223.96 436.96 236.56 421.93 253.85 402.46 270.36 378.44 275.98 354.42 274.79 328.11 269.49 301.5 258.67 275.49 252.01 250.5 252.41 229.44 261.08 205.56 314.64 204.98 349.99 229.29 374.01 247.62 397.13 267.09 419.67 285.12 443.82 298.22 470.01 310.23 498.48 322.02 529.56 331 561.71 342.51 590.14 357.57 613.05 372.13 623.98 391.39 618.36 415.41Q618.36 415.42 618.36 415.42" opacity="0.67"></path><path d="M574.86 442.18C547.2 478.22 499.26 515.88 455.34 542.23 420.18 561.64 386.11 560.27 350.07 533.79 314.03 506.26 282.86 473.18 270.79 443.01 267.47 419.68 286.2 390.68 313.86 354.64 315.4 300.48 323.24 243.33 369 272.79 405.04 299.27 450.84 329.86 498.64 357.67 544.92 378.55 578.66 406.14 574.86 442.17Q574.86 442.18 574.86 442.18" opacity="0.17"></path><path d="M531.36 449.61C514.86 473.63 484.13 493.84 452.06 504.69 421 512.86 391.01 508.62 366.99 490.29 342.96 471.49 329.46 446.58 329.03 422.02 329.61 399.92 340.86 375.64 357.36 351.62 365.1 317.99 381.64 294.77 411.77 316.29 435.79 334.62 467.09 358.34 496.26 381.66 521.74 402.29 536.98 425.59 531.36 449.61Q531.36 449.61 531.36 449.61" opacity="0.75"></path></g></svg>